<svg width="107" height="107" viewBox="0 0 107 107" fill="none" xmlns="http://www.w3.org/2000/svg">
<g clip-path="url(#clip0_8_92)">
<path d="M74.6018 21.2391C75.1746 22.2817 75.2186 23.4097 75.2165 24.568C75.1995 32.9373 75.1948 41.3064 75.2022 49.6754C75.1969 54.2224 72.6937 57.8796 68.5497 59.251C67.4594 59.6 66.3217 59.7785 65.1768 59.7803C57.515 59.8259 49.8536 59.8321 42.1928 59.7989C36.4377 59.784 32.1972 55.5753 32.1765 49.8218C32.145 41.1098 32.1503 32.3986 32.1924 23.6881C32.1961 22.8709 32.5727 22.0531 32.7715 21.2391L33.7033 20.3073C34.7481 19.7356 35.874 19.6948 37.0311 19.6969C48.1341 19.7124 59.2369 19.7137 70.3396 19.7006C71.4968 19.6995 72.6264 19.7367 73.669 20.3084L74.6018 21.2391ZM65.1742 37.2078C66.3027 36.1854 66.9937 34.5079 67.0139 32.6677C67.0316 31.0824 67.0328 29.4969 67.0176 27.9112C67.0027 26.3138 66.1118 25.4229 64.5091 25.4229C57.2903 25.4144 50.0702 25.4146 42.8489 25.4234C41.2542 25.4271 40.3685 26.3212 40.3553 27.9265C40.3422 29.4875 40.3431 31.0486 40.3579 32.6099C40.4014 36.3498 42.9316 38.9023 46.6688 38.9208C51.3516 38.9473 56.0355 38.9282 60.7189 38.9267C62.4244 38.9267 63.9252 38.3974 65.1742 37.2078Z" fill="white"/>
<path d="M49.8064 102.511C49.1673 101.38 48.4625 100.283 47.8924 99.1212C46.6493 96.5873 46.0813 93.9033 46.0925 91.0634C46.1179 83.2463 46.0166 68.5631 45.9487 63.6045C45.9459 63.3845 45.9867 63.166 46.0689 62.9619C46.1511 62.7578 46.273 62.572 46.4276 62.4154C46.5822 62.2587 46.7663 62.1343 46.9693 62.0494C47.1723 61.9645 47.3902 61.9208 47.6103 61.9207L59.6058 61.9202C60.0454 61.92 60.4671 62.094 60.7787 62.4041C61.0902 62.7143 61.2661 63.1352 61.2679 63.5748C61.2801 66.1326 61.2631 71.035 61.2779 73.6877C61.2832 74.5733 61.0213 75.2882 60.379 75.9103C59.6583 76.6087 58.9482 77.3167 58.2201 78.0481C57.7211 78.5498 57.4399 79.2279 57.4375 79.9355C57.4352 80.6431 57.7117 81.3232 58.2073 81.8282L58.2254 81.8463C59.0458 82.6826 59.836 83.5492 60.6829 84.3569C61.1629 84.8145 61.1804 85.1481 60.7041 85.6222C59.4791 86.8473 58.289 88.1063 57.0883 89.3558L57.082 89.3621C56.904 89.5475 56.8009 89.7921 56.7925 90.049C56.7842 90.3058 56.8712 90.5567 57.0369 90.7532C57.5757 91.3927 58.1034 92.0201 58.6422 92.648C59.181 93.2759 59.7262 93.9039 60.2862 94.5159C60.7227 94.9926 60.833 95.4996 60.6394 96.1281C59.9595 98.3321 59.0749 100.429 57.6324 102.257C57.5834 102.339 57.5452 102.427 57.519 102.52L56.2764 103.762C56.0924 103.873 55.9068 103.981 55.7238 104.095C54.4717 104.868 53.1994 104.955 51.8975 104.222C51.6731 104.095 51.4366 103.988 51.2107 103.868L49.8064 102.511Z" fill="white"/>
<path d="M51.2043 103.862C51.4319 103.983 51.6705 104.094 51.8975 104.222C53.2 104.956 54.4722 104.868 55.7233 104.094C55.9063 103.981 56.0913 103.872 56.2759 103.761L53.6895 106.347C52.8611 105.519 52.0327 104.69 51.2043 103.862Z" fill="white"/>
</g>
<defs>
<clipPath id="clip0_8_92">
<rect width="75" height="75" fill="white" transform="translate(0.467041 53.3368) rotate(-45)"/>
</clipPath>
</defs>
</svg>
