<svg width="86" height="36" viewBox="0 0 86 36" fill="none" xmlns="http://www.w3.org/2000/svg">
<path d="M50.1291 35.0208C51.1021 31.491 52.0751 27.9613 53.048 24.4315C55.145 16.7739 57.2606 9.1213 59.3083 1.4509C59.6627 0.123201 60.2169 -0.213394 61.5327 0.307655C66.4882 2.27031 71.5015 4.0978 76.4222 6.13865C78.1332 6.8484 79.7117 7.9313 81.2213 9.0159C83.0063 10.2986 83.7713 12.1431 83.9617 14.3182C84.4564 19.9282 85.0531 25.5297 85.6421 31.1312C85.9821 34.3858 84.4997 36.0408 81.0793 36.0425C63.796 36.0516 46.5127 36.0516 29.2293 36.0425C21.296 36.0425 13.3627 36.0425 5.42934 36.0425C2.00724 36.0425 0.419443 34.5321 0.717793 31.2247C1.26519 25.1574 1.86019 19.0901 2.65834 13.0509C2.82324 11.8065 3.70809 10.3836 4.71194 9.5718C6.54794 8.0962 8.59899 6.76 10.7665 5.8165C15.2179 3.88446 19.8062 2.2465 24.341 0.500602C26.2739 -0.244848 26.6283 -0.0569965 27.1774 1.9524C30.1213 12.7236 33.0651 23.4945 36.0089 34.2652C36.0846 34.606 36.2812 34.908 36.5623 35.1152C36.9065 32.4861 37.2584 29.8579 37.5942 27.228C38.3014 21.6919 39.0281 16.1585 39.6767 10.6156C39.7863 9.6806 39.6308 8.68865 39.4446 7.75195C39.199 6.51095 38.802 5.298 38.4382 3.9533H47.971C47.9038 4.32475 47.9081 4.6843 47.7738 4.9852C46.1299 8.67845 47.0317 12.4397 47.4652 16.178C48.1546 22.128 48.8966 28.078 49.6251 34.0204C49.6659 34.3535 49.7857 34.6765 49.869 35.0046L50.1291 35.0208Z" fill="white"/>
</svg>
